<svg width="48" height="48" viewBox="0 0 48 48" fill="none" xmlns="http://www.w3.org/2000/svg">
<circle cx="24" cy="24" r="24" fill="white"/>
<path d="M28.7308 37H28.5599C22.7235 37 19.9104 34.6996 19.4241 29.5467C19.3715 29.0078 19.7658 28.5214 20.3179 28.4689C20.8437 28.4163 21.3432 28.8238 21.3958 29.3627C21.777 33.4903 23.7225 35.0282 28.573 35.0282H28.7439C34.094 35.0282 35.9868 33.1353 35.9868 27.7853V19.2147C35.9868 13.8647 34.094 11.9718 28.7439 11.9718H28.573C23.6962 11.9718 21.7507 13.536 21.3958 17.7424C21.3301 18.2814 20.87 18.6889 20.3179 18.6363C19.7658 18.5969 19.3715 18.1105 19.4109 17.5716C19.8579 12.3398 22.684 10 28.5599 10H28.7308C35.185 10 37.9455 12.7605 37.9455 19.2147V27.7853C37.9455 34.2395 35.185 37 28.7308 37Z" fill="#292D32"/>
<path d="M28.4134 24.4859H13.4544C12.9154 24.4859 12.4685 24.039 12.4685 23.5C12.4685 22.9611 12.9154 22.5142 13.4544 22.5142H28.4134C28.9524 22.5142 29.3993 22.9611 29.3993 23.5C29.3993 24.039 28.9524 24.4859 28.4134 24.4859Z" fill="#292D32"/>
<path d="M16.3862 28.8896C16.1364 28.8896 15.8867 28.7976 15.6895 28.6004L11.2859 24.1968C10.9047 23.8156 10.9047 23.1847 11.2859 22.8035L15.6895 18.3999C16.0707 18.0187 16.7017 18.0187 17.0829 18.3999C17.4641 18.7811 17.4641 19.412 17.0829 19.7932L13.376 23.5002L17.0829 27.2071C17.4641 27.5883 17.4641 28.2192 17.0829 28.6004C16.8989 28.7976 16.6359 28.8896 16.3862 28.8896Z" fill="#292D32"/>
</svg>
