<svg width="48" height="48" viewBox="0 0 48 48" fill="none" xmlns="http://www.w3.org/2000/svg">
<circle cx="24" cy="24" r="23.5" fill="white" stroke="#302F2C"/>
<g filter="url(#filter0_d_44_3220)">
<path d="M39 18.7704C39 21.3478 38.1093 23.8235 36.5187 25.6548C32.8574 29.8717 29.3061 34.2688 25.5079 38.3328C24.6373 39.2508 23.2563 39.2173 22.4232 38.2578L11.4806 25.6548C8.17312 21.8453 8.17312 15.6954 11.4806 11.886C14.8207 8.03908 20.2619 8.03908 23.6019 11.886L23.9997 12.344L24.3972 11.8862C25.9986 10.0408 28.1796 9 30.4579 9C32.7363 9 34.9172 10.0407 36.5187 11.886C38.1095 13.7174 39 16.193 39 18.7704Z" fill="white"/>
<path d="M39 18.7704C39 21.3478 38.1093 23.8235 36.5187 25.6548C32.8574 29.8717 29.3061 34.2688 25.5079 38.3328C24.6373 39.2508 23.2563 39.2173 22.4232 38.2578L11.4806 25.6548C8.17312 21.8453 8.17312 15.6954 11.4806 11.886C14.8207 8.03908 20.2619 8.03908 23.6019 11.886L23.9997 12.344L24.3972 11.8862C25.9986 10.0408 28.1796 9 30.4579 9C32.7363 9 34.9172 10.0407 36.5187 11.886C38.1095 13.7174 39 16.193 39 18.7704Z" stroke="#302F2C" stroke-linejoin="round"/>
</g>
<defs>
<filter id="filter0_d_44_3220" x="8.5" y="8.5" width="31" height="31" filterUnits="userSpaceOnUse" color-interpolation-filters="sRGB">
<feFlood flood-opacity="0" result="BackgroundImageFix"/>
<feColorMatrix in="SourceAlpha" type="matrix" values="0 0 0 0 0 0 0 0 0 0 0 0 0 0 0 0 0 0 127 0" result="hardAlpha"/>
<feOffset/>
<feColorMatrix type="matrix" values="0 0 0 0 1 0 0 0 0 1 0 0 0 0 1 0 0 0 0.45 0"/>
<feBlend mode="normal" in2="BackgroundImageFix" result="effect1_dropShadow_44_3220"/>
<feBlend mode="normal" in="SourceGraphic" in2="effect1_dropShadow_44_3220" result="shape"/>
</filter>
</defs>
</svg>
