<svg width="48" height="48" viewBox="0 0 48 48" fill="none" xmlns="http://www.w3.org/2000/svg">
<circle cx="24" cy="24" r="23.5" fill="white" stroke="#302F2C"/>
<g filter="url(#filter0_d_29_1560)">
<path d="M39 19.117C39 21.7256 38.1093 24.231 36.5187 26.0844C32.8573 30.3521 29.3061 34.8022 25.5079 38.9152C24.6373 39.8443 23.2563 39.8104 22.4232 38.8393L11.4806 26.0844C8.17312 22.229 8.17312 16.005 11.4806 12.1497C14.8207 8.25645 20.2619 8.25645 23.6019 12.1497L23.9997 12.6133L24.3972 12.1499C25.9986 10.2823 28.1796 9.22894 30.4579 9.22894C32.7363 9.22894 34.9171 10.2822 36.5187 12.1497C38.1094 14.0032 39 16.5086 39 19.117Z" fill="#302F2C"/>
<path d="M39 19.117C39 21.7256 38.1093 24.231 36.5187 26.0844C32.8573 30.3521 29.3061 34.8022 25.5079 38.9152C24.6373 39.8443 23.2563 39.8104 22.4232 38.8393L11.4806 26.0844C8.17312 22.229 8.17312 16.005 11.4806 12.1497C14.8207 8.25645 20.2619 8.25645 23.6019 12.1497L23.9997 12.6133L24.3972 12.1499C25.9986 10.2823 28.1796 9.22894 30.4579 9.22894C32.7363 9.22894 34.9171 10.2822 36.5187 12.1497C38.1094 14.0032 39 16.5086 39 19.117Z" stroke="#302F2C" stroke-linejoin="round"/>
</g>
<defs>
<filter id="filter0_d_29_1560" x="8.5" y="8.72894" width="31" height="31.3615" filterUnits="userSpaceOnUse" color-interpolation-filters="sRGB">
<feFlood flood-opacity="0" result="BackgroundImageFix"/>
<feColorMatrix in="SourceAlpha" type="matrix" values="0 0 0 0 0 0 0 0 0 0 0 0 0 0 0 0 0 0 127 0" result="hardAlpha"/>
<feOffset/>
<feColorMatrix type="matrix" values="0 0 0 0 1 0 0 0 0 1 0 0 0 0 1 0 0 0 0.45 0"/>
<feBlend mode="normal" in2="BackgroundImageFix" result="effect1_dropShadow_29_1560"/>
<feBlend mode="normal" in="SourceGraphic" in2="effect1_dropShadow_29_1560" result="shape"/>
</filter>
</defs>
</svg>
